HIERARCHY
ROOT Hips
{
	OFFSET 0.00000 0.00000 0.00000
	CHANNELS 6 Xposition Yposition Zposition Zrotation Yrotation Xrotation 
	JOINT LHipJoint
	{
		OFFSET 0 0 0
		CHANNELS 3 Zrotation Yrotation Xrotation
		JOINT LeftHip
		{
			OFFSET 3.13874 -1.57224 1.49786
			CHANNELS 3 Zrotation Yrotation Xrotation
			JOINT LeftKnee
			{
				OFFSET 2.10955 -5.79594 0.00000
				CHANNELS 3 Zrotation Yrotation Xrotation
				JOINT LeftAnkle
				{
					OFFSET 2.41843 -6.64458 0.00000
					CHANNELS 3 Zrotation Yrotation Xrotation
					JOINT LeftToe
					{
						OFFSET 0.04713 -0.12948 1.66229
						CHANNELS 3 Zrotation Yrotation Xrotation
						End Site
						{
							OFFSET 0.00000 -0.00000 0.85167
						}
					}
				}
			}
		}
	}
	JOINT RHipJoint
	{
		OFFSET 0 0 0
		CHANNELS 3 Zrotation Yrotation Xrotation
		JOINT RightHip
		{
			OFFSET -3.13988 -1.57224 1.49786
			CHANNELS 3 Zrotation Yrotation Xrotation
			JOINT RightKnee
			{
				OFFSET -2.15006 -5.90725 0.00000
				CHANNELS 3 Zrotation Yrotation Xrotation
				JOINT RightAnkle
				{
					OFFSET -2.34496 -6.44273 0.00000
					CHANNELS 3 Zrotation Yrotation Xrotation
					JOINT RightToe
					{
						OFFSET -0.08699 -0.23900 1.55223
						CHANNELS 3 Zrotation Yrotation Xrotation
						End Site
						{
							OFFSET -0.00000 -0.00000 0.80281
						}
					}
				}
			}
		}
	}
	JOINT lowerback
	{
		OFFSET 0 0 0
		CHANNELS 3 Zrotation Yrotation Xrotation
		JOINT Chest
		{
			OFFSET 0.01292 1.96517 -0.16495
			CHANNELS 3 Zrotation Yrotation Xrotation
			JOINT Chest2
			{
				OFFSET 0.02122 1.88666 0.19706
				CHANNELS 3 Zrotation Yrotation Xrotation
				JOINT lowerneck
				{
					OFFSET 0 0 0
					CHANNELS 3 Zrotation Yrotation Xrotation
					JOINT Neck
					{
						OFFSET -0.01683 1.81591 0.07903
						CHANNELS 3 Zrotation Yrotation Xrotation
						JOINT Head
						{
							OFFSET 0.00815 1.74013 -0.47700
							CHANNELS 3 Zrotation Yrotation Xrotation
							End Site
							{
								OFFSET -0.00204 1.83225 -0.16933
							}
						}
					}
				}
				JOINT LeftCollar
				{
					OFFSET 0 0 0
					CHANNELS 3 Zrotation Yrotation Xrotation
					JOINT LeftShoulder
					{
						OFFSET 3.38482 1.41533 0.19802
CHANNELS 3 Zrotation Xrotation Yrotation
						JOINT LeftElbow
						{
OFFSET 0 -4.327120 0.000000
CHANNELS 3 Zrotation Xrotation Yrotation
							JOINT LeftWrist
							{
OFFSET 0 -3.285870 -0.000000
CHANNELS 3 Zrotation Xrotation Yrotation
								JOINT lhand
								{
									OFFSET 0 0 0
CHANNELS 3 Zrotation Xrotation Yrotation
									JOINT LFingers
									{
OFFSET 0 -0.433160 -0.000000
CHANNELS 3 Zrotation Xrotation Yrotation
										End Site
										{
OFFSET 0 -0.349220 -0.000000
										}
									}
								}
								JOINT LThumb
								{
OFFSET 0 0.000000 0.000000
CHANNELS 3 Zrotation Xrotation Yrotation
									End Site
									{
OFFSET 0 -0.354560 0.354560
									}
								}
							}
						}
					}
				}
				JOINT RightCollar
				{
					OFFSET 0 0 0
					CHANNELS 3 Zrotation Yrotation Xrotation
					JOINT RightShoulder
					{
						OFFSET -3.09725 1.62858 -0.14144
CHANNELS 3 Zrotation Xrotation Yrotation
						JOINT RightElbow
						{
OFFSET 0 -4.291040 0.000000
CHANNELS 3 Zrotation Xrotation Yrotation
							JOINT RightWrist
							{
OFFSET 0 -3.227200 -0.000000
CHANNELS 3 Zrotation Xrotation Yrotation
								JOINT rhand
								{
									OFFSET 0 0 0
CHANNELS 3 Zrotation Xrotation Yrotation
									JOINT RFingers
									{
OFFSET 0 -0.543620 -0.000000
CHANNELS 3 Zrotation Xrotation Yrotation
										End Site
										{
OFFSET 0 -0.438280 -0.000000
										}
									}
								}
								JOINT RThumb
								{
OFFSET 0 0.000000 0.000000
CHANNELS 3 Zrotation Xrotation Yrotation
									End Site
									{
OFFSET 0 -0.444970 0.444970
									}
								}
							}
						}
					}
				}
			}
		}
	}
}
MOTION
Frames: 8
Frame Time: 0.008333333333333333
-25.020300 15.391900 -4.914700 -113.024000 83.546900 -98.488100 0.000000 0.000000 0.000000 -18.226000 2.547100 -11.575800 10.477200 17.669600 61.071600 1.792900 0.959100 -25.685000 3.503700 -11.468900 -33.878200 0.000000 0.000000 0.000000 38.847400 18.029600 -23.871600 -2.056900 -8.983700 25.744400 -0.804300 0.847200 -16.681600 -1.048900 6.512800 -18.279800 11.054500 -1.396800 13.161000 1.739600 1.012600 -9.460200 -4.489500 -0.685700 -18.511700 -0.246800 -1.235000 -18.921000 -5.836200 0.222800 23.951700 -2.018500 -0.548700 10.882300 -0.000000 0.000000 0.000000 11.766100 23.152900 -52.083900 93.260000 -59.959800 62.822800 38.360700 32.822500 -27.319800 0.000000 0.000000 0.000000 -7.125000 0.000000 0.000000 10.430200 63.062300 -4.599300 -0.000000 0.000000 0.000000 -18.180500 31.185500 44.979600 -33.071900 -43.385200 -13.471400 -32.193700 -3.023500 16.625500 0.000000 0.000000 0.000000 7.125000 0.000000 -0.000000 -4.334400 49.366000 0.467400
-24.891307 15.387934 -4.921241 -111.007098 83.406510 -96.238117 0.000000 0.000000 0.000000 -17.869707 2.318799 -13.048486 10.780532 17.812084 62.049734 1.815026 0.770215 -25.774356 3.798638 -11.843483 -35.241072 0.000000 0.000000 0.000000 39.147952 17.835804 -23.536191 -2.044707 -8.958479 25.665699 -0.838378 1.408130 -16.905379 -0.967531 6.232094 -17.468722 11.148637 -1.222684 12.948414 1.848840 1.263453 -9.463128 -4.480290 -0.561339 -18.334545 -0.401422 -1.300377 -18.968495 -5.946774 0.206289 23.859379 -2.033640 -0.583371 10.858858 0.000000 0.000000 0.000000 11.605308 23.677028 -51.669160 93.214655 -59.960875 62.783552 38.649930 33.124924 -27.268099 0.000000 0.000000 0.000000 -7.125000 0.000000 0.000000 10.836230 63.086835 -4.788315 0.000000 0.000000 0.000000 -18.294502 30.560120 44.821569 -33.672467 -43.819175 -13.892904 -31.905952 -2.914724 16.720712 0.000000 0.000000 0.000000 7.125000 0.000000 0.000000 -4.035849 49.424168 0.439048
-24.762313 15.383969 -4.927783 -108.990197 83.266120 -93.988134 0.000000 0.000000 0.000000 -17.513413 2.090499 -14.521173 11.083864 17.954568 63.027868 1.837152 0.581329 -25.863712 4.093575 -12.218067 -36.603945 0.000000 0.000000 0.000000 39.448505 17.642008 -23.200782 -2.032513 -8.933259 25.586999 -0.872457 1.969060 -17.129158 -0.886162 5.951388 -16.657643 11.242774 -1.048568 12.735827 1.958079 1.514305 -9.466056 -4.471080 -0.436978 -18.157389 -0.556043 -1.365754 -19.015989 -6.057348 0.189778 23.767058 -2.048779 -0.618043 10.835417 0.000000 0.000000 0.000000 11.444515 24.201155 -51.254421 93.169310 -59.961950 62.744303 38.939160 33.427348 -27.216398 0.000000 0.000000 0.000000 -7.125000 0.000000 0.000000 11.242260 63.111370 -4.977330 0.000000 0.000000 0.000000 -18.408504 29.934739 44.663537 -34.273035 -44.253150 -14.314407 -31.618205 -2.805947 16.815923 0.000000 0.000000 0.000000 7.125000 0.000000 0.000000 -3.737298 49.482337 0.410695
-24.633320 15.380003 -4.934324 -106.973295 83.125730 -91.738151 0.000000 0.000000 0.000000 -17.157120 1.862198 -15.993859 11.387196 18.097052 64.006003 1.859278 0.392444 -25.953068 4.388513 -12.592650 -37.966817 0.000000 0.000000 0.000000 39.749057 17.448212 -22.865373 -2.020320 -8.908038 25.508298 -0.906535 2.529990 -17.352937 -0.804793 5.670682 -15.846565 11.336911 -0.874451 12.523241 2.067319 1.765158 -9.468984 -4.461870 -0.312618 -17.980234 -0.710665 -1.431131 -19.063484 -6.167921 0.173267 23.674737 -2.063919 -0.652714 10.811975 0.000000 0.000000 0.000000 11.283723 24.725283 -50.839681 93.123965 -59.963024 62.705055 39.228390 33.729772 -27.164696 0.000000 0.000000 0.000000 -7.125000 0.000000 0.000000 11.648291 63.135905 -5.166345 0.000000 0.000000 0.000000 -18.522506 29.309359 44.505506 -34.873602 -44.687124 -14.735911 -31.330457 -2.697171 16.911135 0.000000 0.000000 0.000000 7.125000 0.000000 0.000000 -3.438747 49.540505 0.382343
-24.504326 15.376038 -4.940866 -104.956394 82.985340 -89.488168 0.000000 0.000000 0.000000 -16.800827 1.633898 -17.466546 11.690528 18.239536 64.984137 1.881404 0.203559 -26.042424 4.683450 -12.967233 -39.329690 0.000000 0.000000 0.000000 40.049610 17.254416 -22.529964 -2.008127 -8.882818 25.429597 -0.940613 3.090920 -17.576716 -0.723424 5.389977 -15.035487 11.431048 -0.700335 12.310655 2.176558 2.016010 -9.471912 -4.452661 -0.188257 -17.803079 -0.865287 -1.496508 -19.110979 -6.278495 0.156756 23.582417 -2.079059 -0.687385 10.788534 0.000000 0.000000 0.000000 11.122930 25.249410 -50.424941 93.078620 -59.964099 62.665806 39.517620 34.032196 -27.112995 0.000000 0.000000 0.000000 -7.125000 0.000000 0.000000 12.054321 63.160440 -5.355360 0.000000 0.000000 0.000000 -18.636508 28.683979 44.347474 -35.474170 -45.121099 -15.157414 -31.042710 -2.588395 17.006347 0.000000 0.000000 0.000000 7.125000 0.000000 0.000000 -3.140196 49.598674 0.353991
-24.375333 15.372072 -4.947407 -102.939492 82.844950 -87.238185 0.000000 0.000000 0.000000 -16.444533 1.405597 -18.939232 11.993860 18.382020 65.962271 1.903529 0.014673 -26.131780 4.978388 -13.341817 -40.692562 0.000000 0.000000 0.000000 40.350162 17.060620 -22.194555 -1.995933 -8.857597 25.350897 -0.974691 3.651849 -17.800495 -0.642054 5.109271 -14.224409 11.525184 -0.526219 12.098068 2.285798 2.266863 -9.474839 -4.443451 -0.063896 -17.625924 -1.019909 -1.561885 -19.158473 -6.389069 0.140245 23.490096 -2.094199 -0.722056 10.765092 0.000000 0.000000 0.000000 10.962138 25.773538 -50.010201 93.033275 -59.965174 62.626558 39.806850 34.334620 -27.061294 0.000000 0.000000 0.000000 -7.125000 0.000000 0.000000 12.460351 63.184974 -5.544375 0.000000 0.000000 0.000000 -18.750510 28.058598 44.189443 -36.074737 -45.555074 -15.578918 -30.754962 -2.479619 17.101558 0.000000 0.000000 0.000000 7.125000 0.000000 0.000000 -2.841645 49.656842 0.325639
-24.243006 15.375925 -4.953009 -101.705551 82.842083 -85.937220 0.000000 0.000000 0.000000 -16.284531 1.073889 -20.133192 12.224980 18.481161 66.697013 1.940118 -0.518540 -26.240833 5.070592 -13.462404 -41.125891 0.000000 0.000000 0.000000 40.471470 16.655645 -21.671792 -1.964099 -8.789045 25.138856 -0.990135 4.125053 -17.889770 -0.573705 4.824382 -13.412928 11.497815 -0.428979 12.228502 2.335364 2.433759 -9.534376 -4.420248 0.010634 -17.766912 -1.141936 -1.605383 -19.204682 -6.489733 0.156518 23.548765 -2.109931 -0.738663 10.798550 0.000000 0.000000 0.000000 10.846500 26.544122 -49.596200 93.256232 -59.958128 62.819517 39.700098 34.358888 -27.193099 0.000000 0.000000 0.000000 -7.125000 0.000000 0.000000 12.295461 63.303421 -5.497291 0.000000 0.000000 0.000000 -18.885160 27.633424 44.117471 -36.775156 -46.018488 -16.084467 -30.559896 -2.387989 17.225964 0.000000 0.000000 0.000000 7.125000 0.000000 0.000000 -2.630417 49.763096 0.307543
-24.108490 15.384912 -4.957994 -100.985793 82.929531 -85.259490 0.000000 0.000000 0.000000 -16.253436 0.674270 -21.144108 12.408677 18.551838 67.271915 1.986204 -1.277880 -26.362822 5.029657 -13.416188 -40.948773 0.000000 0.000000 0.000000 40.475065 16.111986 -21.025991 -1.919365 -8.692036 24.839249 -0.993341 4.540645 -17.890716 -0.513906 4.536745 -12.601182 11.390651 -0.382226 12.584202 2.345741 2.545518 -9.631089 -4.387856 0.052440 -18.116831 -1.242559 -1.634514 -19.250045 -6.583888 0.194321 23.706593 -2.126053 -0.743407 10.869375 0.000000 0.000000 0.000000 10.760517 27.476559 -49.182683 93.655387 -59.945750 63.164969 39.333298 34.200486 -27.445416 0.000000 0.000000 0.000000 -7.125000 0.000000 0.000000 11.755638 63.483541 -5.295156 0.000000 0.000000 0.000000 -19.033370 27.339728 44.102017 -37.541149 -46.501237 -16.645212 -30.425695 -2.307621 17.369541 0.000000 0.000000 0.000000 7.125000 0.000000 0.000000 -2.476537 49.900929 0.296184
